<svg xmlns="http://www.w3.org/2000/svg" viewBox="0 0 494.41 127.56"><defs><style>.cls-1{fill:#fff;}.cls-2{fill:#1a6ab0;}.cls-3{fill:#26255e;}.cls-4{fill:#ffcd07;}.cls-5{fill:#ba2029;}.cls-6{fill:#ba2034;}.cls-7{fill:#f9cc17;}</style></defs><title>Asset Logo 2nd</title><g id="Layer_2" data-name="Layer 2"><g id="Layer_1-2" data-name="Layer 1"><path class="cls-1" d="M16.27,111.81a.73.73,0,1,1,0,1.46H12.94a.89.89,0,0,1-.93-.93v-5.29a.89.89,0,0,1,.93-.93h3.22a.73.73,0,1,1,0,1.46H13.68V109h1.54a.7.7,0,1,1,0,1.4H13.68v1.43Z"/><path class="cls-1" d="M22.76,106.78v5.75a.83.83,0,0,1-.83.8.81.81,0,0,1-.8-.63,1.52,1.52,0,0,1-1.35.64,2.52,2.52,0,0,1-2.45-2.72,2.55,2.55,0,0,1,2.45-2.72,1.42,1.42,0,0,1,1.33.74v.1a.57.57,0,0,1,0-.13v-1.83a.82.82,0,0,1,.81-.8.83.83,0,0,1,.83.8m-1.58,3.84c0-1-.64-1.33-1.09-1.33a1.35,1.35,0,0,0,0,2.66c.45,0,1.09-.31,1.09-1.33"/><path class="cls-1" d="M23.74,110.8v-2.07a.82.82,0,0,1,1.63,0v2.07c0,.8.37,1.15.91,1.15a1.05,1.05,0,0,0,1-1v-2.26a.82.82,0,0,1,.82-.81.81.81,0,0,1,.81.81v3.75a.82.82,0,0,1-.81.83.83.83,0,0,1-.82-.83v-.31a1.63,1.63,0,0,1-1.66,1.16c-1.06,0-1.9-.73-1.9-2.53"/><path class="cls-1" d="M34.42,112.14a1,1,0,0,1-.48.76,2.43,2.43,0,0,1-1.46.42,2.71,2.71,0,1,1,0-5.42,2.43,2.43,0,0,1,1.46.42,1,1,0,0,1,.48.76.63.63,0,0,1-.64.62,1.15,1.15,0,0,1-.62-.23,1.2,1.2,0,0,0-.63-.16,1.3,1.3,0,0,0,0,2.6,1.2,1.2,0,0,0,.63-.16,1.15,1.15,0,0,1,.62-.23.63.63,0,0,1,.64.62"/><path class="cls-1" d="M40.36,108.74v3.79a.84.84,0,0,1-.84.8.81.81,0,0,1-.8-.63,1.52,1.52,0,0,1-1.35.64,2.52,2.52,0,0,1-2.45-2.72,2.55,2.55,0,0,1,2.45-2.72,1.4,1.4,0,0,1,1.33.74v.1a.83.83,0,0,1,.82-.81.85.85,0,0,1,.84.81m-1.59,1.88c0-1-.64-1.33-1.09-1.33a1.35,1.35,0,0,0,0,2.66c.45,0,1.09-.31,1.09-1.33"/><path class="cls-1" d="M44.66,112.48c0,.54-.45.84-1.28.84s-1.59-.24-1.59-1.93v-2.17h-.21a.63.63,0,1,1,0-1.26h.21v-.59a.82.82,0,0,1,.81-.82.83.83,0,0,1,.82.82V108H44a.63.63,0,1,1,0,1.26h-.59v2.25c0,.28.08.45.28.45s.27,0,.39,0a.54.54,0,0,1,.57.59"/><path class="cls-1" d="M45.32,106.68a.83.83,0,1,1,.83.8.83.83,0,0,1-.83-.8M47,108.76v3.75a.82.82,0,1,1-1.64,0v-3.75a.82.82,0,1,1,1.64,0"/><path class="cls-1" d="M53.27,110.64a2.77,2.77,0,0,1-5.53,0,2.77,2.77,0,0,1,5.53,0m-3.91,0a1.19,1.19,0,0,0,1.15,1.29,1.21,1.21,0,0,0,1.16-1.29,1.22,1.22,0,0,0-1.16-1.33,1.21,1.21,0,0,0-1.15,1.33"/><path class="cls-1" d="M59.24,110.44v2.08a.82.82,0,0,1-1.63,0v-2.08c0-.8-.37-1.15-.91-1.15a1.06,1.06,0,0,0-1,1v2.27a.82.82,0,0,1-1.63,0v-3.76a.82.82,0,1,1,1.63,0v.31a1.64,1.64,0,0,1,1.66-1.16c1.06,0,1.9.73,1.9,2.53"/><path class="cls-1" d="M65.45,108.74v3.79a.84.84,0,0,1-.84.8.82.82,0,0,1-.8-.63,1.52,1.52,0,0,1-1.35.64A2.52,2.52,0,0,1,60,110.62a2.55,2.55,0,0,1,2.45-2.72,1.4,1.4,0,0,1,1.33.74v.1a.83.83,0,0,1,.82-.81.85.85,0,0,1,.84.81m-1.59,1.88c0-1-.64-1.33-1.09-1.33a1.35,1.35,0,0,0,0,2.66c.45,0,1.09-.31,1.09-1.33"/><path class="cls-1" d="M67.15,113.32a.81.81,0,0,1-.81-.8V106.8a.82.82,0,1,1,1.63,0v5.72a.81.81,0,0,1-.82.8"/><path class="cls-1" d="M77.17,110.62a2.52,2.52,0,0,1-2.46,2.72,1.51,1.51,0,0,1-1.34-.64.82.82,0,0,1-.8.63.84.84,0,0,1-.84-.8v-5.75a.84.84,0,0,1,.84-.8.82.82,0,0,1,.81.8v1.83a.57.57,0,0,1,0,.13v-.1a1.4,1.4,0,0,1,1.32-.74,2.55,2.55,0,0,1,2.46,2.72m-1.64,0a1.18,1.18,0,0,0-1.12-1.33c-.45,0-1.1.32-1.1,1.33S74,112,74.41,112a1.18,1.18,0,0,0,1.12-1.33"/><path class="cls-1" d="M81.77,108.64c0,.46-.33.77-1,.77a1.14,1.14,0,0,0-1.16.84v2.27a.82.82,0,0,1-1.64,0v-3.76a.82.82,0,1,1,1.64,0v.31A1.6,1.6,0,0,1,81,107.91a.69.69,0,0,1,.73.73"/><path class="cls-1" d="M82.54,106.68a.83.83,0,1,1,.83.8.83.83,0,0,1-.83-.8m1.65,2.08v3.75a.82.82,0,0,1-1.64,0v-3.75a.82.82,0,1,1,1.64,0"/><path class="cls-1" d="M90.41,106.78v5.75a.84.84,0,0,1-.84.8.81.81,0,0,1-.8-.63,1.52,1.52,0,0,1-1.35.64A2.52,2.52,0,0,1,85,110.62a2.55,2.55,0,0,1,2.45-2.72,1.4,1.4,0,0,1,1.33.74v.1a.57.57,0,0,1,0-.13v-1.83a.82.82,0,0,1,.81-.8.84.84,0,0,1,.84.8m-1.59,3.84c0-1-.64-1.33-1.09-1.33a1.35,1.35,0,0,0,0,2.66c.45,0,1.09-.31,1.09-1.33"/><path class="cls-1" d="M96.62,112.53a.76.76,0,0,1,0,.21v.43c0,1.65-1.6,2.2-2.68,2.2a4.47,4.47,0,0,1-1.35-.24.78.78,0,0,1-.54-.7.65.65,0,0,1,.64-.65.85.85,0,0,1,.3,0,5.69,5.69,0,0,0,1,.15c.76,0,1-.44,1-.81v-.44a1.52,1.52,0,0,1-1.32.61,2.52,2.52,0,0,1-2.46-2.72,2.55,2.55,0,0,1,2.46-2.72,1.4,1.4,0,0,1,1.32.74v.1a.83.83,0,0,1,.82-.81.85.85,0,0,1,.84.81ZM95,110.62c0-1-.64-1.33-1.09-1.33a1.35,1.35,0,0,0,0,2.66c.45,0,1.09-.31,1.09-1.33"/><path class="cls-1" d="M102.68,110.36c0,.64-.35.86-1,.86l-2.6,0a1.13,1.13,0,0,0,1.23.82,2,2,0,0,0,.64-.11,1.93,1.93,0,0,1,.59-.16.51.51,0,0,1,.54.54.86.86,0,0,1-.38.67,2.78,2.78,0,0,1-1.47.37,2.65,2.65,0,0,1-2.85-2.68,2.72,2.72,0,0,1,2.73-2.74,2.57,2.57,0,0,1,2.58,2.46m-3.61-.26h2a.89.89,0,0,0-1-.79.94.94,0,0,0-1,.79"/><path class="cls-1" d="M111.67,110.62a2.52,2.52,0,0,1-2.45,2.72,1.52,1.52,0,0,1-1.35-.64.81.81,0,0,1-.8.63.84.84,0,0,1-.84-.8v-5.75a.84.84,0,0,1,.84-.8.82.82,0,0,1,.81.8v1.83a.57.57,0,0,1,0,.13v-.1a1.4,1.4,0,0,1,1.33-.74,2.55,2.55,0,0,1,2.45,2.72m-1.64,0a1.18,1.18,0,0,0-1.12-1.33c-.45,0-1.09.32-1.09,1.33s.64,1.33,1.09,1.33a1.18,1.18,0,0,0,1.12-1.33"/><path class="cls-1" d="M117.44,110.36c0,.64-.35.86-1,.86l-2.61,0a1.14,1.14,0,0,0,1.23.82,1.91,1.91,0,0,0,.64-.11,2,2,0,0,1,.59-.16.52.52,0,0,1,.55.54.84.84,0,0,1-.39.67,2.77,2.77,0,0,1-1.46.37,2.64,2.64,0,0,1-2.85-2.68,2.72,2.72,0,0,1,2.73-2.74,2.57,2.57,0,0,1,2.57,2.46m-3.61-.26h2a.89.89,0,0,0-1-.79,1,1,0,0,0-1,.79"/><path class="cls-1" d="M121.29,112.48c0,.54-.45.84-1.28.84s-1.59-.24-1.59-1.93v-2.17h-.2a.63.63,0,1,1,0-1.26h.2v-.59a.83.83,0,0,1,.82-.82.82.82,0,0,1,.81.82V108h.6a.63.63,0,1,1,0,1.26h-.6v2.25c0,.28.09.45.28.45s.28,0,.39,0a.53.53,0,0,1,.57.59"/><path class="cls-1" d="M129.79,108.7a1.52,1.52,0,0,1-.11.37l-1.29,3.6a.81.81,0,0,1-.78.62.87.87,0,0,1-.81-.62l-1.09-2.43-1.08,2.43a.9.9,0,0,1-.82.62.8.8,0,0,1-.77-.62l-1.28-3.6a1.18,1.18,0,0,1-.11-.37.76.76,0,0,1,.77-.77.72.72,0,0,1,.68.43l.83,2.62,1.06-2.56a.73.73,0,0,1,.72-.49.74.74,0,0,1,.74.49l1,2.56.84-2.62a.73.73,0,0,1,.68-.43.76.76,0,0,1,.77.77"/><path class="cls-1" d="M135.25,110.36c0,.64-.35.86-1,.86l-2.6,0a1.13,1.13,0,0,0,1.23.82,2,2,0,0,0,.64-.11,1.93,1.93,0,0,1,.59-.16.51.51,0,0,1,.54.54.86.86,0,0,1-.38.67,2.78,2.78,0,0,1-1.47.37,2.65,2.65,0,0,1-2.85-2.68,2.72,2.72,0,0,1,2.73-2.74,2.57,2.57,0,0,1,2.58,2.46m-3.61-.26h2a.89.89,0,0,0-1-.79.94.94,0,0,0-1,.79"/><path class="cls-1" d="M141,110.36c0,.64-.35.86-1,.86l-2.61,0a1.14,1.14,0,0,0,1.23.82,1.91,1.91,0,0,0,.64-.11,2,2,0,0,1,.59-.16.52.52,0,0,1,.55.54.87.87,0,0,1-.39.67,2.77,2.77,0,0,1-1.46.37,2.64,2.64,0,0,1-2.85-2.68,2.71,2.71,0,0,1,2.72-2.74,2.57,2.57,0,0,1,2.58,2.46m-3.61-.26h2a.89.89,0,0,0-1-.79.94.94,0,0,0-1,.79"/><path class="cls-1" d="M147,110.44v2.08a.82.82,0,0,1-1.63,0v-2.08c0-.8-.37-1.15-.91-1.15a1.06,1.06,0,0,0-1,1v2.27a.82.82,0,0,1-.82.8.81.81,0,0,1-.81-.8v-3.76a.82.82,0,0,1,.81-.83.83.83,0,0,1,.82.83v.31a1.64,1.64,0,0,1,1.66-1.16c1.06,0,1.9.73,1.9,2.53"/><path class="cls-1" d="M158.47,106.89v5.55a.88.88,0,0,1-.88.86.86.86,0,0,1-.84-.86v-2.62l-1.42,2.69a.83.83,0,0,1-.72.47.8.8,0,0,1-.72-.47l-1.42-2.69v2.62a.86.86,0,1,1-1.71,0v-5.55a.76.76,0,0,1,.77-.8,1.08,1.08,0,0,1,.84.55l2.24,4,2.24-4a1.11,1.11,0,0,1,.84-.55.77.77,0,0,1,.78.8"/><path class="cls-1" d="M164.67,108.74v3.79a.84.84,0,0,1-.84.8.8.8,0,0,1-.79-.63,1.55,1.55,0,0,1-1.35.64,2.51,2.51,0,0,1-2.45-2.72,2.55,2.55,0,0,1,2.45-2.72,1.43,1.43,0,0,1,1.33.74v.1a.82.82,0,0,1,.81-.81.85.85,0,0,1,.84.81m-1.58,1.88c0-1-.65-1.33-1.1-1.33a1.35,1.35,0,0,0,0,2.66c.45,0,1.1-.31,1.1-1.33"/><path class="cls-1" d="M166.38,113.32a.81.81,0,0,1-.82-.8V106.8a.83.83,0,0,1,.82-.82.82.82,0,0,1,.81.82v5.72a.8.8,0,0,1-.81.8"/><path class="cls-1" d="M173.41,108.74v3.79a.84.84,0,0,1-.84.8.81.81,0,0,1-.8-.63,1.52,1.52,0,0,1-1.35.64,2.52,2.52,0,0,1-2.45-2.72,2.55,2.55,0,0,1,2.45-2.72,1.4,1.4,0,0,1,1.33.74v.1a.83.83,0,0,1,.82-.81.85.85,0,0,1,.84.81m-1.59,1.88c0-1-.64-1.33-1.09-1.33a1.35,1.35,0,0,0,0,2.66c.45,0,1.09-.31,1.09-1.33"/><path class="cls-1" d="M179.46,108.65a.86.86,0,0,1-.1.39l-2.56,5.64a.86.86,0,0,1-.78.58.7.7,0,0,1-.72-.72,1,1,0,0,1,.09-.39l.52-1.15-1.84-4a1,1,0,0,1-.09-.39.73.73,0,0,1,.74-.72.85.85,0,0,1,.78.58l1.2,2.74,1.23-2.74a.86.86,0,0,1,.78-.58.73.73,0,0,1,.75.72"/><path class="cls-1" d="M183.48,108.6a.79.79,0,0,1,.2.51.57.57,0,0,1-.62.61.83.83,0,0,1-.66-.3.79.79,0,0,0-.55-.25c-.26,0-.41.14-.41.32s0,.24.36.36l.61.18c.75.23,1.47.62,1.47,1.57,0,1.18-1.08,1.72-2.14,1.72a2.42,2.42,0,0,1-1.72-.65,1.19,1.19,0,0,1-.35-.77.58.58,0,0,1,.61-.6.87.87,0,0,1,.66.36,1.08,1.08,0,0,0,.8.35c.41,0,.52-.18.52-.32s0-.27-.45-.41l-.48-.14c-1.06-.32-1.5-.88-1.5-1.64,0-1.1,1-1.6,2-1.6a2.14,2.14,0,0,1,1.69.7"/><path class="cls-1" d="M184.59,106.68a.83.83,0,1,1,.83.8.83.83,0,0,1-.83-.8m1.65,2.08v3.75a.82.82,0,0,1-1.64,0v-3.75a.82.82,0,1,1,1.64,0"/><path class="cls-1" d="M192.46,108.74v3.79a.84.84,0,0,1-.84.8.82.82,0,0,1-.8-.63,1.51,1.51,0,0,1-1.34.64,2.52,2.52,0,0,1-2.46-2.72,2.55,2.55,0,0,1,2.46-2.72,1.4,1.4,0,0,1,1.32.74v.1a.83.83,0,0,1,.82-.81.85.85,0,0,1,.84.81m-1.58,1.88c0-1-.65-1.33-1.1-1.33a1.35,1.35,0,0,0,0,2.66c.45,0,1.1-.31,1.1-1.33"/><path class="cls-1" d="M196.22,111a2.15,2.15,0,0,1,1.5-2.05l-.77-1.27a1,1,0,0,1,1-1.57h2.63a.7.7,0,1,1,0,1.39h-2.19l1,1.69c.2.35.16.82-.45.82a.94.94,0,0,0-1.06,1,1,1,0,0,0,1.07,1c.32,0,1.48,0,1.48-1.11v-1.08a.9.9,0,0,1,.93-.93h.84a.68.68,0,0,1,.7.68.7.7,0,0,1-.7.71H202v1.15c0,.47.1.53.56.58a.59.59,0,0,1,.66.63c0,.55-.42.72-1,.72a1.1,1.1,0,0,1-1.26-1.2v0a2.4,2.4,0,0,1-2.12,1.21,2.5,2.5,0,0,1-2.62-2.35"/><path class="cls-1" d="M211,106.91v3.84a2.31,2.31,0,0,1-2.5,2.59,3,3,0,0,1-1.54-.39,1,1,0,0,1-.51-.8.67.67,0,0,1,.7-.7,1.25,1.25,0,0,1,.61.19,1.44,1.44,0,0,0,.69.2c.33,0,.83-.09.83-1.08v-3.85a.86.86,0,0,1,1.72,0"/><path class="cls-1" d="M217.16,108.74v3.79a.84.84,0,0,1-.84.8.81.81,0,0,1-.79-.63,1.55,1.55,0,0,1-1.35.64,2.52,2.52,0,0,1-2.45-2.72,2.55,2.55,0,0,1,2.45-2.72,1.43,1.43,0,0,1,1.33.74v.1a.83.83,0,0,1,.81-.81.85.85,0,0,1,.84.81m-1.58,1.88c0-1-.64-1.33-1.09-1.33a1.35,1.35,0,0,0,0,2.66c.45,0,1.09-.31,1.09-1.33"/><path class="cls-1" d="M223.58,110.62a2.52,2.52,0,0,1-2.45,2.72,1.55,1.55,0,0,1-1.34-.63v1.78a.82.82,0,0,1-.83.8.81.81,0,0,1-.82-.8v-5.75a.85.85,0,0,1,.84-.81.83.83,0,0,1,.82.81v-.1a1.4,1.4,0,0,1,1.33-.74,2.55,2.55,0,0,1,2.45,2.72m-1.64,0a1.18,1.18,0,0,0-1.12-1.33c-.45,0-1.09.32-1.09,1.33s.64,1.33,1.09,1.33a1.18,1.18,0,0,0,1.12-1.33"/><path class="cls-1" d="M229.51,108.74v3.79a.84.84,0,0,1-.83.8.81.81,0,0,1-.8-.63,1.52,1.52,0,0,1-1.35.64,2.52,2.52,0,0,1-2.45-2.72,2.55,2.55,0,0,1,2.45-2.72,1.4,1.4,0,0,1,1.33.74v.1a.83.83,0,0,1,.82-.81.85.85,0,0,1,.83.81m-1.58,1.88c0-1-.64-1.33-1.09-1.33a1.35,1.35,0,0,0,0,2.66c.45,0,1.09-.31,1.09-1.33"/><path class="cls-1" d="M235.68,110.44v2.08a.81.81,0,0,1-1.62,0v-2.08c0-.8-.37-1.15-.91-1.15a1.05,1.05,0,0,0-1,1v2.27a.82.82,0,0,1-.82.8.81.81,0,0,1-.81-.8v-3.76a.82.82,0,0,1,.81-.83.83.83,0,0,1,.82.83v.31a1.64,1.64,0,0,1,1.65-1.16c1.07,0,1.9.73,1.9,2.53"/><path class="cls-2" d="M421.08,81l28.4-64.18a1,1,0,0,1,.7-.57,4.28,4.28,0,0,0,2.81-2.1,4.32,4.32,0,0,0-7.29-4.62,4.38,4.38,0,0,0-.74,1.81.27.27,0,0,1-.39.2c-10.53-4.92-22.35-4-31.93-3.17S397.77,4.89,396.45,4s-1.89-2.57-6.63,5.1a44.78,44.78,0,0,0-6.41,16.36A8.9,8.9,0,0,1,382.07,29c-10.82,13.3-11.75,23-11.19,23.79a11,11,0,0,0,3,2C388.07,59.32,390.73,57,402,57.27s18.5,3.91,18.5,3.91c.36.21.69.41,1,.61a3.48,3.48,0,0,1,1.25,4.36l-5.88,13a2.3,2.3,0,0,0,1.44,3.15A2.35,2.35,0,0,0,421.08,81"/><path class="cls-2" d="M418.93,85.67a5.52,5.52,0,0,1-5-7.79l5.88-13a.28.28,0,0,0-.08-.34c-.23-.15-.47-.3-.73-.45a32.65,32.65,0,0,0-4.61-1.67,50.35,50.35,0,0,0-12.46-1.88c-3.14-.07-5.54.06-7.86.18-5.88.33-10.53.58-21.2-2.87l-.2-.07-.19-.08c-.07,0-.74-.36-1.51-.8a7.82,7.82,0,0,1-2.75-2.29c-.68-1-.84-2.33-.53-4.46a29.48,29.48,0,0,1,1.49-5.66,61.06,61.06,0,0,1,10.28-17.36,5.31,5.31,0,0,0,.74-1.91c.21-2.17,1.85-9.61,6.88-17.75C390.22,2.33,392,.48,394.19.07A4.72,4.72,0,0,1,398,1.18l.2.14.48.34c1.62,1.14,5.92,4.16,13.65,3.49,8.59-.74,20.1-1.74,30.85,2.32A7.55,7.55,0,1,1,452,19L424,82.31a5.62,5.62,0,0,1-5.11,3.36M400.07,54l2,0c11.85.29,19.55,4.09,19.87,4.26l.07,0,.07,0c.4.23.8.47,1.17.72a6.64,6.64,0,0,1,2.58,3.19l20.69-46.77a4.24,4.24,0,0,1,2.94-2.41,1.07,1.07,0,0,0,.71-.54,1.09,1.09,0,0,0-1.85-1.15,1.14,1.14,0,0,0-.18.44,3.5,3.5,0,0,1-4.95,2.61A40.07,40.07,0,0,0,428.08,11a109.28,109.28,0,0,0-15.16.57c-.95.08-1.85.12-2.72.12A25.17,25.17,0,0,1,395.14,7a38.78,38.78,0,0,0-2.57,3.77,42.25,42.25,0,0,0-5.95,15,11.83,11.83,0,0,1-1.87,5l-.08.12-.09.12a57.36,57.36,0,0,0-8.89,14.47,24.58,24.58,0,0,0-1.64,5.69c.31.18.67.38,1,.55,9.37,3,13.27,2.8,18.65,2.51,1.85-.11,3.9-.22,6.36-.22"/><path class="cls-1" d="M426.72,59.71a1.82,1.82,0,0,1-2.29,1c-3.89-1.45-14-5-19.82-4.88-7.13.12-21.75,2.29-31.62-3.21a1.54,1.54,0,0,1-.77-1.57c.42-2.84,2.37-11.17,11.27-21.75a2.42,2.42,0,0,0,.49-1c.5-2.61,2.95-13.84,9.3-21.54a1.86,1.86,0,0,1,2.35-.44c2.86,1.62,10,5.13,16.69,4.18,8.61-1.23,23.72-2.05,33.16,3.62a1.45,1.45,0,0,1,.48,1.75Z"/><path class="cls-2" d="M409.09,72.43,460.14,24.8a1.8,1.8,0,0,0,.56-1.37,4.29,4.29,0,0,1,1.07-3.07,4.32,4.32,0,0,1,6.76,5.37,4.4,4.4,0,0,1-1.06,1.05.67.67,0,0,0-.12,1c7.84,8.3,10.8,19.57,13.12,28.77,2.39,9.43,8.16,12.9,9.42,13.86s3.05,1-2.64,7.94a45,45,0,0,1-13.36,11.42A9,9,0,0,0,471,92.22c-9,14.58-17.84,18.62-18.8,18.37a11,11,0,0,1-2.84-2.16c-9-11.92-7.67-15.2-11.62-25.76S428,66.48,428,66.48c-.31-.28-.61-.52-.9-.74a3.49,3.49,0,0,0-4.53.25l-10.4,9.83a2.28,2.28,0,0,1-3.44-.33,2.32,2.32,0,0,1,.36-3.06"/><path class="cls-2" d="M452.33,113.83a3.54,3.54,0,0,1-.93-.12,7.92,7.92,0,0,1-3.06-1.85c-.67-.58-1.19-1.11-1.25-1.17l-.15-.15-.12-.16c-6.76-8.95-8-13.43-9.67-19.09-.64-2.24-1.31-4.55-2.41-7.48a44.44,44.44,0,0,0-8.94-15c-.23-.2-.45-.38-.67-.55a.25.25,0,0,0-.34,0l-10.4,9.83a5.51,5.51,0,0,1-8.28-.79,5.58,5.58,0,0,1,.77-7.32l2.2,2.37-2.2-2.37,50.59-47.19a7.53,7.53,0,0,1,11.2-6.24,7.56,7.56,0,0,1,2.63,10.78c7.36,8.82,10.19,20.05,12.3,28.38,1.91,7.53,6.17,10.59,7.78,11.75l.47.35.2.13a4.75,4.75,0,0,1,2.31,3.27c.33,2.19-.83,4.5-4.61,9.14-6,7.42-12.53,11.41-14.52,12.32a5.48,5.48,0,0,0-1.55,1.33,61.16,61.16,0,0,1-13,15.4,30.22,30.22,0,0,1-4.86,3.27,7.82,7.82,0,0,1-3.46,1.08m-.49-7.53c.27.27.58.55.85.78a25.51,25.51,0,0,0,4.84-3.42,57.27,57.27,0,0,0,10.75-13.14l.08-.13.09-.12a12,12,0,0,1,4.1-3.4,42,42,0,0,0,12.19-10.52,36.22,36.22,0,0,0,2.72-3.67,24.86,24.86,0,0,1-4.83-4.49,27.7,27.7,0,0,1-5.29-10.81A109.1,109.1,0,0,0,473,43.07a40.33,40.33,0,0,0-8-13,3.91,3.91,0,0,1,.64-5.92,1.28,1.28,0,0,0,.26-.26,1.09,1.09,0,0,0,.17-.87,1.06,1.06,0,0,0-.55-.72,1.08,1.08,0,0,0-1.32.23,1.05,1.05,0,0,0-.28.77,5,5,0,0,1-1.58,3.89L425.22,61.8a6.65,6.65,0,0,1,3.86,1.38c.35.27.71.57,1.06.88l.06,0,.05,0c.26.25,6.38,6.27,10.54,17.38,1.19,3.17,1.92,5.72,2.57,8,1.48,5.18,2.56,8.93,8.48,16.8"/><path class="cls-1" d="M427.35,60.12a1.8,1.8,0,0,0-.17,2.48c2.65,3.2,9.28,11.57,11.11,17.12,2.22,6.78,5,21.3,13.4,28.82a1.54,1.54,0,0,0,1.73.22c2.55-1.33,9.78-5.9,16.86-17.78a2.17,2.17,0,0,1,.8-.79c2.3-1.33,12.11-7.33,17.29-15.85A1.88,1.88,0,0,0,488,72c-2.47-2.16-8.13-7.75-9.42-14.39-1.66-8.54-5.84-23.07-14.29-30.13a1.43,1.43,0,0,0-1.81.11Z"/><path class="cls-3" d="M441,47.46s7.84,5.62,12.63,21.65l22.77-20.52a71.12,71.12,0,0,0-5.21-12.66,33.63,33.63,0,0,0-6.08-7.79l-.76-.7a1.42,1.42,0,0,0-1.81.11Z"/><path class="cls-4" d="M462.25,41.61a7.74,7.74,0,1,0-8.44,12.22,6.74,6.74,0,0,1-1.7-1.51,6.86,6.86,0,1,1,10.67-8.63A6.76,6.76,0,0,1,464,45.82a7.75,7.75,0,0,0-1.7-4.21"/><polygon class="cls-4" points="460.72 58.47 460 54.85 457.89 57.8 458.78 54.26 455.59 55.97 457.94 53.21 454.29 53.33 457.62 51.9 454.24 50.42 457.89 50.6 455.45 47.8 458.7 49.55 457.69 46 459.89 48.98 460.5 45.38 461.23 48.99 463.34 46.05 462.44 49.58 465.63 47.88 463.29 50.64 466.94 50.51 463.61 51.95 466.99 53.43 463.33 53.25 465.77 56.04 462.52 54.29 463.54 57.84 461.33 54.87 460.72 58.47"/><path class="cls-5" d="M438,50.11s6.78,5.78,12.06,19.57,6.62,21,16.64,26.84c0,0,2.28-3.21,2.66-3.94,0,0-5.53-2-10.13-9.79a44.33,44.33,0,0,1-5.61-13.68S449.3,53.92,441,47.46Z"/><path class="cls-5" d="M464.26,99.34S453.94,94,451.38,83.8,444,58.59,435.47,52.48L433,55s4.4,3,8.48,10.76,5,21.26,11.08,28.23,9.16,8.33,9.16,8.33,2.19-2.33,2.55-2.93"/><path class="cls-5" d="M459.28,104.83a31.71,31.71,0,0,1-13.43-18.09c-3.34-12.33-6.51-23-15.37-29.56l-2.57,2.4s8,6.93,11.25,16.82,2.89,20.32,16.73,30.88a27.78,27.78,0,0,0,3.39-2.45"/><path class="cls-5" d="M471.32,90s-8.79-4.82-11.6-14.17-3.32-9.24-3.32-9.24l3.24-2.9a77.19,77.19,0,0,0,3,8.74c2.15,5.45,6.51,11.8,13.25,14.69A45,45,0,0,1,471.32,90"/><path class="cls-5" d="M462.55,61S464.81,77.51,479,84.67c0,0,2.55-2.11,3.4-3,0,0-13-3.25-16.88-23.31Z"/><path class="cls-5" d="M484.11,80s-13.06-6.36-16.06-23.9l2.74-2.49s3.95,20.29,15.69,23.49c0,0-1.36,1.68-2.37,2.9"/><path class="cls-5" d="M487.89,75.09a31.9,31.9,0,0,1-11.23-13.43c-3.84-8.9-3.69-10-3.69-10l3.39-3.08s2,6.75,2.1,8.33A14.23,14.23,0,0,0,480,61.64a31.38,31.38,0,0,0,7.27,9.58s1.32.87,1.35,1.68a3.16,3.16,0,0,1-.7,2.19"/><path class="cls-6" d="M418.85,22.9A13.2,13.2,0,1,1,400.44,26a13.19,13.19,0,0,1,18.41-3.1"/><path class="cls-2" d="M427.88,83.33l-.3,32.71c0,8.37-7.1,11.52-15.47,11.52l-154.26-.07c-5.5,0-11.5-6.8-11.5-12.3V97.32a7.41,7.41,0,0,1-3.58,2.42,16.18,16.18,0,0,1-4.34.56,17.53,17.53,0,0,1-9.85-2.92c-2.89,3.12-10.13,2.92-10.13,2.92a14.15,14.15,0,0,1-4.28-.56,7.17,7.17,0,0,1-3.8-2.73c-.26.18-.53.36-.82.53a18.3,18.3,0,0,1-10.57,3,19.46,19.46,0,0,1-6.89-1.31,23.58,23.58,0,0,1-6.24-3.52,17.61,17.61,0,0,1-2.27-2.14,12.64,12.64,0,0,1-1.52,3.92,10.23,10.23,0,0,1-4.16,3c-2.65,1.11-6.24.74-11,.74h-9.65c-3.63,0-7.47-3.39-8.83-6.56-2.59,2.9-6,5.58-10.08,5.57a36.76,36.76,0,0,1-7.09-.6,8.23,8.23,0,0,1-6.48-6.36l-.75-.07c-1.12-.27-1.53.3-2.12,1.29l-1.37,2.32a8,8,0,0,1-7.34,3.42H92.59a9.45,9.45,0,0,1-6.36-2.43,7.58,7.58,0,0,1-3.06,1.81,14.39,14.39,0,0,1-4.34.56A11.31,11.31,0,0,1,73.28,99a14.51,14.51,0,0,1-5.92,1.18,16,16,0,0,1-7-1.59,19.87,19.87,0,0,1-5.86-4.38l-.3-.33a9.71,9.71,0,0,1-.87,2.34,7.13,7.13,0,0,1-4.29,3.51,14.39,14.39,0,0,1-4.34.56,14.15,14.15,0,0,1-4.28-.56,7.44,7.44,0,0,1-3-1.75c-2.32,1.94-4.48,2.88-6.62,2.88a7.49,7.49,0,0,1-4.27-1.43,15.3,15.3,0,0,1-2.79-2.6L19.54,92c0,.47-.05.88-.1,1.22a9.14,9.14,0,0,1-1.06,3.07,7.16,7.16,0,0,1-4.29,3.49,14.36,14.36,0,0,1-4.33.56A13.4,13.4,0,0,1,6,99.82a9.13,9.13,0,0,1-3-1.48A7.15,7.15,0,0,1,.56,94.92,9.93,9.93,0,0,1,0,92.37c0-.44,0-1,0-1.88V58.74a19.56,19.56,0,0,1,.13-2.58,9,9,0,0,1,1-3.12,7.22,7.22,0,0,1,4.29-3.49A14.39,14.39,0,0,1,9.81,49a13.38,13.38,0,0,1,3.79.48,9,9,0,0,1,3,1.48A7,7,0,0,1,19,54.37a9.41,9.41,0,0,1,.52,2.55c0,.1,0,.19,0,.29q2.37-2.72,4.25-4.91a14.28,14.28,0,0,1,2.83-2.61,7.57,7.57,0,0,1,4.25-1.39,9.57,9.57,0,0,1,5.55,2.05,7.14,7.14,0,0,1,4-3.08,14.39,14.39,0,0,1,4.34-.56,14.15,14.15,0,0,1,4.28.56,7.07,7.07,0,0,1,4.32,3.59,9.46,9.46,0,0,1,1,3,19.56,19.56,0,0,1,.13,2.58,19.63,19.63,0,0,1-.13,2.59,9.26,9.26,0,0,1-1,3,6.74,6.74,0,0,1-1,1.41A7.39,7.39,0,0,1,54,66.18c.11.35.21.68.29,1l.34-.38a20.32,20.32,0,0,1,5.85-4.39,15.78,15.78,0,0,1,6.93-1.6,15.54,15.54,0,0,1,1.83.1V56.4a19.56,19.56,0,0,1,.13-2.58,9.26,9.26,0,0,1,1-3,7.1,7.1,0,0,1,4.29-3.51A14.39,14.39,0,0,1,79,46.71a14.15,14.15,0,0,1,4.28.56,7.07,7.07,0,0,1,4.32,3.59,9.46,9.46,0,0,1,1,3,19.56,19.56,0,0,1,.13,2.58v5.2a7.68,7.68,0,0,1,.88-.35,9.41,9.41,0,0,1,2.55-.52c.47,0,1.08,0,1.88,0h16.88a26.3,26.3,0,0,1-.28-3,15,15,0,0,1,.51-4.16,6.7,6.7,0,0,1,3.36-4A8.06,8.06,0,0,1,117,49a20.59,20.59,0,0,1,2.42,0H151.2a15.32,15.32,0,0,1,2.43.15,8.91,8.91,0,0,1,2.54.87,6.49,6.49,0,0,1,2.4,2.08,8.48,8.48,0,1,1,14.34,9l.7.21A17.27,17.27,0,0,1,179,64,17.08,17.08,0,0,1,182.59,68l.19.3a18.36,18.36,0,0,1,3-3.08,22.55,22.55,0,0,1,6.28-3.52,19.34,19.34,0,0,1,12.34-.47,17.8,17.8,0,0,1,4.09,1.63l.12.07.12.07V56.4a19.56,19.56,0,0,1,.13-2.58,9.26,9.26,0,0,1,1-3,7.1,7.1,0,0,1,4.29-3.51,14.39,14.39,0,0,1,4.34-.56,14.15,14.15,0,0,1,4.28.56,7.07,7.07,0,0,1,4.32,3.59,9.29,9.29,0,0,1,1,3,19.56,19.56,0,0,1,.13,2.58V61a13.74,13.74,0,0,1,1.95-.15,17.1,17.1,0,0,1,7.19,1.52,17.34,17.34,0,0,1,5.87,4.44c.27.3.51.62.75.93A24.81,24.81,0,0,1,250.75,54a30.9,30.9,0,0,1,28-8.15c3.82.82,11.83,3,13.13,7.24a4.72,4.72,0,0,1-.41,3.69l-.35.63-.15.26a4.89,4.89,0,0,1,.34.82c2.12-.64,4.39.85,6.81.85a21.11,21.11,0,0,1,6.62,1,16.26,16.26,0,0,1,6.84,4.12q.17-.35.36-.69a7.16,7.16,0,0,1,4.34-3.31,14.88,14.88,0,0,1,4.17-.5,13.92,13.92,0,0,1,4.22.56,8.52,8.52,0,0,1,1.82.81,15.32,15.32,0,0,1,1.76-.72,12.18,12.18,0,0,1,3.9-.65,17.12,17.12,0,0,1,7.2,1.52,16.66,16.66,0,0,1,4.74,3.28,7.09,7.09,0,0,1,2-2.83,7.46,7.46,0,0,1,2.45-1.42V59.11a19.36,19.36,0,0,1,.13-2.58,8.59,8.59,0,0,1,1.07-3.05,7,7,0,0,1,4.33-3.34,15.57,15.57,0,0,1,4.23-.5,12.8,12.8,0,0,1,3.74.49,9.55,9.55,0,0,1,2.85,1.35A6.91,6.91,0,0,1,367.36,55a9.66,9.66,0,0,1,.52,2.6c0,.48,0,1.08,0,1.84v.65a8.57,8.57,0,0,1,5.91,1.05c7.21-2.48,11.49,0,11.49,0a13,13,0,0,1,15.28,2.17s10.33-6.47,21.51-.33c0,0,11,4.52,5.77,20.39"/><path class="cls-1" d="M312.14,73.71q0,3.77-1.74,5.45a5.4,5.4,0,0,1-3.85,1.69H293a3.13,3.13,0,0,0,1.88,2.68A8.05,8.05,0,0,0,299,84.62a18,18,0,0,0,2.91-.23,12.41,12.41,0,0,0,2-.46l.62-.23a5.79,5.79,0,0,1,2.29-.63c1.22,0,2.26.86,3.14,2.57a6.4,6.4,0,0,1,.74,2.63q0,5.08-12.16,5.08A18.2,18.2,0,0,1,291,91.89a12.86,12.86,0,0,1-5.11-3.82,17,17,0,0,1-2.71-5,16.68,16.68,0,0,1-.88-5.36q0-7.2,4.65-11.51a17.74,17.74,0,0,1,16.76-3.54,12.52,12.52,0,0,1,3.88,2,12.19,12.19,0,0,1,2.59,2.83,11.75,11.75,0,0,1,1.52,3.17,11,11,0,0,1,.45,3m-12,1.94c1.44,0,2.17-.61,2.17-1.82a2.61,2.61,0,0,0-1-2.12,4.55,4.55,0,0,0-2.88-.8,5.76,5.76,0,0,0-3.66,1.52,4.24,4.24,0,0,0-1.83,3.22Z"/><path class="cls-1" d="M332.58,62.52a12.08,12.08,0,0,1,9.51,4.37,15.67,15.67,0,0,1,3.8,10.65v10a15.66,15.66,0,0,1-.09,2,4.79,4.79,0,0,1-.51,1.49,2.44,2.44,0,0,1-1.52,1.17,9.9,9.9,0,0,1-2.91.34,8.83,8.83,0,0,1-2.45-.28,4.87,4.87,0,0,1-1.49-.66,2.25,2.25,0,0,1-.77-1.17,5.07,5.07,0,0,1-.28-1.31c0-.35,0-.88,0-1.6v-10a4.88,4.88,0,0,0-1.34-3.65,5.56,5.56,0,0,0-7.25,0,4.79,4.79,0,0,0-1.4,3.6v10.1a15.66,15.66,0,0,1-.09,2,4.79,4.79,0,0,1-.51,1.49,2.44,2.44,0,0,1-1.52,1.17,9.9,9.9,0,0,1-2.91.34,9.64,9.64,0,0,1-2.85-.34,2.41,2.41,0,0,1-1.52-1.2,5.16,5.16,0,0,1-.51-1.51,16.31,16.31,0,0,1-.08-2V67.32a15.41,15.41,0,0,1,.08-1.91,4.18,4.18,0,0,1,.54-1.46A2.5,2.5,0,0,1,318,62.83a11.06,11.06,0,0,1,2.86-.31,9.85,9.85,0,0,1,2.8.34,2.6,2.6,0,0,1,1.48,1,3.52,3.52,0,0,1,.49,1.12,7.53,7.53,0,0,1,.08,1.2,3.09,3.09,0,0,1,.32-.4c.13-.16.41-.44.85-.86a9.74,9.74,0,0,1,1.4-1.11,8.55,8.55,0,0,1,1.91-.89,7.46,7.46,0,0,1,2.37-.4"/><path class="cls-1" d="M367.35,72.63l-3.71-.23v7.88a3.86,3.86,0,0,0,.49,2.22,2,2,0,0,0,1.74.69c.95,0,1.66,0,2.14.08a4.05,4.05,0,0,1,1.48.52,2.22,2.22,0,0,1,1.06,1.34,8.81,8.81,0,0,1,.28,2.51,9,9,0,0,1-.37,2.86A2.49,2.49,0,0,1,369.23,92a4.8,4.8,0,0,1-1.51.51,15.11,15.11,0,0,1-1.91.09c-4,0-7-.9-9-2.68s-3.08-4.82-3.08-9.08V72.4a13.83,13.83,0,0,1-2.06.17,2.93,2.93,0,0,1-2.37-1c-.55-.65-.83-2-.83-4a10.42,10.42,0,0,1,.29-2.66,2.85,2.85,0,0,1,.83-1.51,2.71,2.71,0,0,1,1.05-.6,4.3,4.3,0,0,1,1.2-.14l1.89.22V57a15.55,15.55,0,0,1,.08-1.94,4.12,4.12,0,0,1,.52-1.4,2.38,2.38,0,0,1,1.51-1.08,10.79,10.79,0,0,1,2.91-.31,8.36,8.36,0,0,1,2.37.28,5,5,0,0,1,1.46.66,2.22,2.22,0,0,1,.77,1.14,5.18,5.18,0,0,1,.28,1.34c0,.38,0,.92,0,1.6v5.59c1.67-.15,2.93-.22,3.77-.22a18.73,18.73,0,0,1,2,.08,4.62,4.62,0,0,1,1.48.52A2.42,2.42,0,0,1,372,64.75a9.9,9.9,0,0,1,.34,2.91,9.64,9.64,0,0,1-.34,2.85,2.41,2.41,0,0,1-1.2,1.52,5.07,5.07,0,0,1-1.51.51,15.88,15.88,0,0,1-2,.09"/><path class="cls-1" d="M426.65,74.76q0,3.76-1.74,5.45a5.45,5.45,0,0,1-3.86,1.68H407.52a3.14,3.14,0,0,0,1.89,2.69,8,8,0,0,0,4,1.08,17.88,17.88,0,0,0,2.91-.23,12.38,12.38,0,0,0,2-.45l.63-.23a5.71,5.71,0,0,1,2.28-.63c1.22,0,2.27.86,3.14,2.57a6.25,6.25,0,0,1,.75,2.62q0,5.09-12.17,5.09a18.35,18.35,0,0,1-7.5-1.46,12.81,12.81,0,0,1-5.11-3.83,17,17,0,0,1-2.72-5,16.7,16.7,0,0,1-.88-5.37q0-7.19,4.65-11.5a17.74,17.74,0,0,1,16.76-3.54,11.78,11.78,0,0,1,6.48,4.82,11.85,11.85,0,0,1,1.51,3.17,10.77,10.77,0,0,1,.46,3.06m-12,1.94c1.45,0,2.17-.61,2.17-1.83a2.56,2.56,0,0,0-1-2.11,4.51,4.51,0,0,0-2.88-.8,5.7,5.7,0,0,0-3.65,1.51,4.26,4.26,0,0,0-1.83,3.23Z"/><path class="cls-1" d="M397.9,66.06a10.27,10.27,0,0,1-1.09,4.63,3.41,3.41,0,0,1-3.14,2.17,4.55,4.55,0,0,1-2-.46,4.26,4.26,0,0,0-1.91-.46A5.31,5.31,0,0,0,386.33,73,3.26,3.26,0,0,0,385,75.65v12a16.21,16.21,0,0,1-.08,2,4.53,4.53,0,0,1-.54,1.49,2.56,2.56,0,0,1-1.55,1.17,10.25,10.25,0,0,1-2.91.34,8.86,8.86,0,0,1-2.42-.29,4.15,4.15,0,0,1-1.49-.68,2.54,2.54,0,0,1-.74-1.17,5.33,5.33,0,0,1-.29-1.31c0-.37,0-.91,0-1.63v-20a16.21,16.21,0,0,1,.08-2,4.88,4.88,0,0,1,.51-1.49,2.44,2.44,0,0,1,1.52-1.17,10.25,10.25,0,0,1,2.91-.34,9.85,9.85,0,0,1,2.8.34,2.7,2.7,0,0,1,1.48,1,3.85,3.85,0,0,1,.52,1,3.54,3.54,0,0,1,.11.91,9.31,9.31,0,0,1,.83-1A10.28,10.28,0,0,1,388,63.21a7.38,7.38,0,0,1,3.6-1,10.9,10.9,0,0,1,1.77.14,14.2,14.2,0,0,1,2,.48,3.82,3.82,0,0,1,1.8,1.17,3,3,0,0,1,.72,2"/><path class="cls-7" d="M277.9,81a23.63,23.63,0,0,1-.18-3.84,4.64,4.64,0,0,1-.44.26,8.6,8.6,0,0,1-11.13-3.07A7.26,7.26,0,0,1,269.08,64a8.61,8.61,0,0,1,11.12,3,21,21,0,0,1,7.74-8.87,19.56,19.56,0,0,0-1.63-1.53l2-3.28.38-.61-.67-.38-5.21-2.93-.67-.38-.38.62-2,3.27a22.5,22.5,0,0,0-2.92-.8l0-3.83v-.73h-.77l-6-.15-.77,0v.72l0,3.84a19.63,19.63,0,0,0-2.9.67l-2.07-3.38-.39-.63-.66.34-5.18,2.69-.67.34.39.64L259.91,56a19.88,19.88,0,0,0-2.13,2l-3.55-2-.67-.37-.38.61-3,4.8-.39.62.67.37L254,64a17.81,17.81,0,0,0-.77,2.72l-4.09-.1-.77,0v.72l0,5.62v.72l.77,0,4.09.1a18,18,0,0,0,.8,2.75l-3.54,1.84-.66.34.38.64,3,4.94.38.63.67-.34,3.54-1.84a19.77,19.77,0,0,0,2.14,2.05L258,88l-.39.61.67.38L263.51,92l.67.38.38-.61,2-3.27a22.5,22.5,0,0,0,2.92.8v4.56h.77l6,.15.77,0v-.73l0-3.84a21.08,21.08,0,0,0,2.91-.66l.27-.13A25,25,0,0,1,277.9,81"/><path class="cls-7" d="M22.66,72.89q8.73,8.39,12.39,12.62c1.25,1.4,1.88,2.53,1.88,3.36,0,1.11-.8,2.36-2.4,3.77a6.24,6.24,0,0,1-3.65,1.83q-1.43,0-3.48-2.4L14.84,77.74V88.87a15.67,15.67,0,0,1-.09,2,4.78,4.78,0,0,1-.54,1.49,2.54,2.54,0,0,1-1.54,1.2,10.35,10.35,0,0,1-2.91.34,8.91,8.91,0,0,1-2.46-.29,4.56,4.56,0,0,1-1.48-.68,2.36,2.36,0,0,1-.77-1.17,4.88,4.88,0,0,1-.29-1.32q0-.54,0-1.62V57.07a15.59,15.59,0,0,1,.09-2,4.3,4.3,0,0,1,.54-1.52,2.51,2.51,0,0,1,1.54-1.2,9.9,9.9,0,0,1,2.91-.34,8.91,8.91,0,0,1,2.46.29,4.66,4.66,0,0,1,1.48.68,2.43,2.43,0,0,1,.77,1.17,5.33,5.33,0,0,1,.29,1.31c0,.37,0,.91,0,1.63V68Q22.6,59.3,27.4,53.71q2-2.34,3.48-2.34a6.21,6.21,0,0,1,3.65,1.82q2.4,2.12,2.4,3.77c0,.84-.63,2-1.88,3.37-1.07,1.25-2.64,2.93-4.71,5s-3.88,3.89-5.4,5.37Z"/><path class="cls-1" d="M44.75,59.76a10,10,0,0,1-2.85-.34,2.37,2.37,0,0,1-1.51-1.2,4.89,4.89,0,0,1-.52-1.52,16.1,16.1,0,0,1-.08-2,16.31,16.31,0,0,1,.08-2,4.62,4.62,0,0,1,.52-1.48,2.39,2.39,0,0,1,1.51-1.17,9.9,9.9,0,0,1,2.91-.34,9.64,9.64,0,0,1,2.85.34,2.41,2.41,0,0,1,1.52,1.2,5.07,5.07,0,0,1,.51,1.51,21.61,21.61,0,0,1,0,3.94,4.88,4.88,0,0,1-.51,1.49,2.44,2.44,0,0,1-1.52,1.17,10.25,10.25,0,0,1-2.91.34m-5,9.08a16.4,16.4,0,0,1,.08-2,4.62,4.62,0,0,1,.52-1.48,2.39,2.39,0,0,1,1.51-1.17,9.9,9.9,0,0,1,2.91-.34,9,9,0,0,1,2.43.28,4.09,4.09,0,0,1,1.48.69A2.54,2.54,0,0,1,49.46,66a5.23,5.23,0,0,1,.29,1.31c0,.36,0,.91,0,1.63v20a15.77,15.77,0,0,1-.09,2,4.88,4.88,0,0,1-.51,1.49,2.44,2.44,0,0,1-1.52,1.17,10.25,10.25,0,0,1-2.91.34,10,10,0,0,1-2.85-.34,2.37,2.37,0,0,1-1.51-1.2,4.93,4.93,0,0,1-.52-1.49,16.14,16.14,0,0,1-.08-2Z"/><path class="cls-1" d="M79,49.77a9.64,9.64,0,0,1,2.85.34,2.41,2.41,0,0,1,1.52,1.2,5.07,5.07,0,0,1,.51,1.51,15.88,15.88,0,0,1,.09,2V88.87a15.66,15.66,0,0,1-.09,2,4.45,4.45,0,0,1-.54,1.49,2.57,2.57,0,0,1-1.54,1.17,10,10,0,0,1-2.92.34Q74.5,93.84,74,91a8.41,8.41,0,0,1-6.68,2.74q-5.14,0-9.36-4.48a14.89,14.89,0,0,1-4.23-10.59A14.66,14.66,0,0,1,58,68.38q4.26-4.51,9.34-4.51a8,8,0,0,1,6.56,2.85v-12a15.88,15.88,0,0,1,.09-2,4.83,4.83,0,0,1,.51-1.48A2.44,2.44,0,0,1,76,50.11,9.9,9.9,0,0,1,79,49.77M65.25,82.31a4.8,4.8,0,0,0,3.59,1.54,4.56,4.56,0,0,0,3.52-1.54,5,5,0,0,0,1.39-3.43,5.2,5.2,0,0,0-1.34-3.42,4.46,4.46,0,0,0-3.62-1.6,4.61,4.61,0,0,0-3.66,1.57,5.16,5.16,0,0,0-1.37,3.45,4.84,4.84,0,0,0,1.49,3.43"/><path class="cls-1" d="M103.5,83.85h9.08a14.16,14.16,0,0,1,2,.11,4.56,4.56,0,0,1,1.48.58,2.51,2.51,0,0,1,1.14,1.54,9.6,9.6,0,0,1,.35,2.85,9.72,9.72,0,0,1-.35,2.86A2.36,2.36,0,0,1,116,93.3a4.8,4.8,0,0,1-1.51.51,15.77,15.77,0,0,1-2,.09H92.59a4.77,4.77,0,0,1-3.48-1.49,5,5,0,0,1,0-7.08q1.48-1.42,4.57-4.16c2-1.83,3.92-3.48,5.59-4.94S101.86,74,102,73.8H94q-1.08,0-1.62,0A4.82,4.82,0,0,1,91,73.49a2.43,2.43,0,0,1-1.17-.77,4.62,4.62,0,0,1-.68-1.49,8.79,8.79,0,0,1-.29-2.45,9,9,0,0,1,.29-2.43,4.27,4.27,0,0,1,.68-1.48A2.55,2.55,0,0,1,91,64.12a5.22,5.22,0,0,1,1.32-.28q.54,0,1.62,0h18.56A4.87,4.87,0,0,1,116,65.24a4.63,4.63,0,0,1,1.48,3.48,4.77,4.77,0,0,1-1.42,3.6q-2,1.94-12.56,11.53"/><path class="cls-7" d="M119.94,52h31.74a10.86,10.86,0,0,1,1.66.09,4.34,4.34,0,0,1,1.19.43,2,2,0,0,1,1,1.25,7.93,7.93,0,0,1,.29,2.4,7.63,7.63,0,0,1-.29,2.37,2,2,0,0,1-1,1.23,4.27,4.27,0,0,1-1.22.43,13.56,13.56,0,0,1-1.69.08h-10.9V89a15.11,15.11,0,0,1-.09,1.94,4.65,4.65,0,0,1-.51,1.46,2.45,2.45,0,0,1-1.51,1.17,10.11,10.11,0,0,1-2.86.34,9.66,9.66,0,0,1-2.82-.34,2.43,2.43,0,0,1-1.49-1.17,4.62,4.62,0,0,1-.51-1.49,15.77,15.77,0,0,1-.09-2V60.27h-11a12.91,12.91,0,0,1-1.63-.08,4.27,4.27,0,0,1-1.22-.43,2,2,0,0,1-1-1.26,7.93,7.93,0,0,1-.29-2.4,7.56,7.56,0,0,1,.29-2.36,2,2,0,0,1,1-1.23,4.27,4.27,0,0,1,1.22-.43,11.51,11.51,0,0,1,1.69-.09"/><path class="cls-1" d="M202.26,83.05a6.21,6.21,0,0,1,2.86-1.2q1.71,0,4.16,3a5,5,0,0,1,1.32,3q0,2.16-3.14,4.05a13.6,13.6,0,0,1-8,2.28,14.67,14.67,0,0,1-5.22-1,18.7,18.7,0,0,1-5-2.82,13.66,13.66,0,0,1-3.82-4.88,15.28,15.28,0,0,1-1.48-6.77,14.79,14.79,0,0,1,1.48-6.65,13.77,13.77,0,0,1,3.8-4.82,17.86,17.86,0,0,1,5-2.8,14.64,14.64,0,0,1,9.39-.37,14.3,14.3,0,0,1,3,1.17l.91.57c.69.46,1.21.82,1.57,1.08a4.51,4.51,0,0,1,1,1.12,2.68,2.68,0,0,1,.49,1.57,6.05,6.05,0,0,1-1.2,3.19c-1.37,2.1-2.69,3.15-3.94,3.15a6.6,6.6,0,0,1-3.08-1.26,4.26,4.26,0,0,0-3-1,5.34,5.34,0,0,0-3.48,1.37,4.61,4.61,0,0,0-1.66,3.77,4.66,4.66,0,0,0,1.6,3.79A5.22,5.22,0,0,0,199.24,84a5.68,5.68,0,0,0,1.65-.22,3.51,3.51,0,0,0,1-.46Z"/><path class="cls-1" d="M230.64,63.93a12.1,12.1,0,0,1,9.5,4.33,15.59,15.59,0,0,1,3.8,10.62V88.93a15.77,15.77,0,0,1-.09,2,4.62,4.62,0,0,1-.51,1.49,2.44,2.44,0,0,1-1.52,1.17,10.25,10.25,0,0,1-2.91.34,9.66,9.66,0,0,1-2.82-.34,2.55,2.55,0,0,1-1.52-1.17,4.51,4.51,0,0,1-.54-1.52,20.1,20.1,0,0,1-.08-2.05v-10a5,5,0,0,0-1.32-3.66,4.55,4.55,0,0,0-3.36-1.31,5.49,5.49,0,0,0-3.54,1.23A4.36,4.36,0,0,0,224,77.86V88.93a15.77,15.77,0,0,1-.09,2,4.88,4.88,0,0,1-.51,1.49,2.44,2.44,0,0,1-1.52,1.17,10.25,10.25,0,0,1-2.91.34,10,10,0,0,1-2.85-.34,2.37,2.37,0,0,1-1.51-1.2,4.93,4.93,0,0,1-.52-1.49,16.14,16.14,0,0,1-.08-2V54.73a16.31,16.31,0,0,1,.08-2,4.62,4.62,0,0,1,.52-1.48,2.39,2.39,0,0,1,1.51-1.17,9.9,9.9,0,0,1,2.91-.34,9.64,9.64,0,0,1,2.85.34,2.41,2.41,0,0,1,1.52,1.2,5.07,5.07,0,0,1,.51,1.51,15.88,15.88,0,0,1,.09,2V67.41a8.45,8.45,0,0,1,6.68-3.48"/><path class="cls-1" d="M162.66,72.35c-.59,0-1.06.74-1.06,1.65s.47,1.64,1.06,1.64,1.07-.73,1.07-1.64-.48-1.65-1.07-1.65"/><path class="cls-1" d="M169.26,72.35c-.58,0-1.06.74-1.06,1.65s.48,1.64,1.06,1.64,1.07-.73,1.07-1.64-.48-1.65-1.07-1.65"/><path class="cls-1" d="M181.21,72H179.7a12,12,0,0,0-1.49-3.07,11.71,11.71,0,0,0-6.51-4.84,16.4,16.4,0,0,0-5.08-.78V58a3.76,3.76,0,1,0-2.07,0v5.35a16.09,16.09,0,0,0-9.68,4.23A14,14,0,0,0,151.66,72h-1.92a.47.47,0,0,0-.47.47v5.62a.47.47,0,0,0,.47.47h.46c0,.21,0,.42,0,.64a16.79,16.79,0,0,0,3.62,10.41,12.92,12.92,0,0,0,5.13,3.85,18.51,18.51,0,0,0,7.54,1.46q12.22,0,12.22-5.11a6.36,6.36,0,0,0-.75-2.64q-1.32-2.58-3.15-2.58a5.75,5.75,0,0,0-2.29.63l-.64.23a11.41,11.41,0,0,1-2,.46,17.15,17.15,0,0,1-2.93.23A8,8,0,0,1,162.87,85,3.13,3.13,0,0,1,161,82.33h13.59a5.43,5.43,0,0,0,3.87-1.7,5.25,5.25,0,0,0,1.28-2.1h1.49a.52.52,0,0,0,.52-.52V72.49a.52.52,0,0,0-.52-.52m-8.08,3.59c-.43,1.29-2,1.94-3.25,2s-2.4.13-3.59.16c-.7,0-1.39,0-2.09,0-2.12-.05-5.9-.52-5.47-3.37,0-.14.06-.29.1-.45.7-2.46,3.75-3.25,6-3.43.41,0,.81-.05,1.21-.05a9.05,9.05,0,0,1,5.2,1.17c1.14.75,2.41,2.51,1.93,3.93"/><path class="cls-7" d="M272.36,105.94a2.07,2.07,0,0,0-2.27-2.28h-3.95l-.08-1a2.11,2.11,0,0,0-2.47-2.15,2.35,2.35,0,0,0-1.67.73,2.29,2.29,0,0,0-.47,1.74l0,.64h-3a2.07,2.07,0,0,0-2.28,2.28v0a2.07,2.07,0,0,0,2.28,2.28h3.34l.12,1.86h-3.42a2.33,2.33,0,0,0,0,4.66h3.75l.27,3.79a2.08,2.08,0,0,0,2.24,2.16H265a2.35,2.35,0,0,0,1.67-.73,2.3,2.3,0,0,0,.47-1.75l-.25-3.46H270a2.33,2.33,0,0,0,0-4.66h-3.45l-.13-1.86h3.63a2.08,2.08,0,0,0,2.27-2.3"/><path class="cls-7" d="M275.12,112.59a1.47,1.47,0,0,0,.89.27,2.12,2.12,0,0,0,.42,0,1.69,1.69,0,0,0,1.42-2.06l-.88-5.37a1.53,1.53,0,0,0-1.86-1.36,1.63,1.63,0,0,0-1.54,2l.9,5.33a1.74,1.74,0,0,0,.65,1.26"/><path class="cls-7" d="M285.28,104.05h0a2,2,0,0,0-2.15,2,21.61,21.61,0,0,1-.51,2.44,16.77,16.77,0,0,1-.68,2.08l-.83-5.13a1.56,1.56,0,0,0-1.89-1.36,1.63,1.63,0,0,0-1.54,2l.9,5.34a1.81,1.81,0,0,0,.65,1.26,1.63,1.63,0,0,0,1.31.23l.32-.08a8.11,8.11,0,0,1-1.48,1.72,6.57,6.57,0,0,1-3,1.5c-.56.1-1.78.54-1.51,2.45v0a2,2,0,0,0,.83,1.31,1.87,1.87,0,0,0,1.05.28,3.09,3.09,0,0,0,.71-.08h0a10.36,10.36,0,0,0,3.26-1.48,12.57,12.57,0,0,0,3-2.9,16.19,16.19,0,0,0,2.11-3.78,24.09,24.09,0,0,0,1.25-5.43,2.11,2.11,0,0,0-.36-1.7,1.93,1.93,0,0,0-1.48-.63"/><path class="cls-7" d="M306.17,101.19a7.91,7.91,0,0,1-3.78-1.34,1.24,1.24,0,0,0-1.33,1.34v.91a3.16,3.16,0,0,0-2.16-.63h-7.42a2.16,2.16,0,0,0-2.37,2.36v0a2.16,2.16,0,0,0,2.37,2.36H297a.08.08,0,0,0,0,0,17.73,17.73,0,0,1-2.14,3.68,23.76,23.76,0,0,1-2.85,3.18,11.47,11.47,0,0,1-2.7,1.94l-.06,0a2.46,2.46,0,0,0-.85,3.29l0,.07.05.06a2.17,2.17,0,0,0,1.78,1,2.86,2.86,0,0,0,1.4-.43,21.16,21.16,0,0,0,3-2.18,24,24,0,0,0,2.39-2.43c.56.74,1.13,1.48,1.7,2.19a15.75,15.75,0,0,0,1.86,2,2.17,2.17,0,0,0,2.94.4l.07,0,0-.06a2.43,2.43,0,0,0,.12-3.33l0-.06c-.69-.73-1.4-1.55-2.12-2.44s-1.26-1.58-1.85-2.35a27.21,27.21,0,0,0,2-4.08,4.32,4.32,0,0,0,.51-2.54h.19a1.43,1.43,0,0,1,2.43,0,1.24,1.24,0,0,0,1.33-1.34Z"/><path class="cls-7" d="M319.47,107.16H308.26a2.07,2.07,0,0,0-2.27,2.28v0a2.07,2.07,0,0,0,2.27,2.28h4a4.6,4.6,0,0,1-1,2.07,5.23,5.23,0,0,1-3,1.56,2.09,2.09,0,0,0-1.6,2.74v0a2,2,0,0,0,2,1.75,2.91,2.91,0,0,0,.64-.07,12.27,12.27,0,0,0,4.05-1.63,8.6,8.6,0,0,0,2.56-2.73,9.06,9.06,0,0,0,1.17-3.71h2.44a2.29,2.29,0,0,0,0-4.58"/><path class="cls-7" d="M308.89,106h10a2.29,2.29,0,0,0,0-4.57h-10a2.07,2.07,0,0,0-2.28,2.27v0a2.07,2.07,0,0,0,2.28,2.27"/><path class="cls-7" d="M324.7,112.59a1.5,1.5,0,0,0,.9.27,2,2,0,0,0,.41,0,1.67,1.67,0,0,0,1.42-2.06l-.87-5.37a1.54,1.54,0,0,0-1.87-1.36,1.62,1.62,0,0,0-1.53,2l.89,5.33a1.81,1.81,0,0,0,.65,1.26"/><path class="cls-7" d="M334.79,104.05h0a2,2,0,0,0-2.15,2,24.14,24.14,0,0,1-.51,2.44,18.63,18.63,0,0,1-.68,2.08l-.83-5.13A1.56,1.56,0,0,0,328.7,104a1.63,1.63,0,0,0-1.54,2l.9,5.34a1.78,1.78,0,0,0,.65,1.26,1.63,1.63,0,0,0,1.31.23l.32-.08a8.41,8.41,0,0,1-1.48,1.72,6.6,6.6,0,0,1-3,1.5c-.55.1-1.77.54-1.5,2.45v0a2,2,0,0,0,.84,1.31,1.86,1.86,0,0,0,1,.28A3,3,0,0,0,327,120h0a10.22,10.22,0,0,0,3.25-1.48,12.42,12.42,0,0,0,3-2.9,16.19,16.19,0,0,0,2.11-3.78,24.65,24.65,0,0,0,1.25-5.43,2.08,2.08,0,0,0-.37-1.7,1.9,1.9,0,0,0-1.48-.63"/><path class="cls-7" d="M349.22,102.86H346a2,2,0,0,0-.22-1.19,2.11,2.11,0,0,0-1.33-1h-.06a2.34,2.34,0,0,0-3,1.74,12.74,12.74,0,0,1-1.56,3.35,10.91,10.91,0,0,1-1.39,1.66l0,0a2.38,2.38,0,0,0-.07,3.36l.05.07.06.05a2.33,2.33,0,0,0,3.25-.4,16.67,16.67,0,0,0,2.53-3.19h3.68a.75.75,0,0,1,.43.11.69.69,0,0,1,0,.44,8,8,0,0,1-.94,2.72,9.44,9.44,0,0,1-2.08,2.68,10.76,10.76,0,0,1-2.49,1.75,11.69,11.69,0,0,1-1.82.74l-.06,0a2.21,2.21,0,0,0-1.31,3l0,.11a2.18,2.18,0,0,0,2,1.39,3.07,3.07,0,0,0,1.06-.21,24.29,24.29,0,0,0,3.41-1.59,14.48,14.48,0,0,0,3.12-2.4,12.38,12.38,0,0,0,2.55-3.83,16.8,16.8,0,0,0,1.32-4.38,4.65,4.65,0,0,0-.76-3.86,4,4,0,0,0-3.17-1.14"/><path class="cls-7" d="M363.42,110.32a2.12,2.12,0,0,0-.89,2.84l0,.07,0,.07a2,2,0,0,0,2.9.72h0a16.09,16.09,0,0,0,3.51-2.77l0,0a8.26,8.26,0,0,0,1.46-2.33,4.35,4.35,0,0,0,.18-3.77c-.55-1.11-1.66-1.67-3.33-1.65l-5.64.17v-.87a2.07,2.07,0,0,0-2.28-2.26,2,2,0,0,0-2.21,2.26v1h-.41a2.16,2.16,0,0,0-2.28,2.46,2.17,2.17,0,0,0,2.47,2.28l.23,0c0,3.18.05,5.31.08,6.36v0a5.21,5.21,0,0,0,1.76,4.05,7.16,7.16,0,0,0,4.11,1.17H364c1.19,0,2.69,0,4.46-.14a2.22,2.22,0,0,0,2.33-2.41,2.19,2.19,0,0,0-.66-1.63,2.4,2.4,0,0,0-1.83-.54c-.93.06-1.78.1-2.53.13s-1.49,0-2.2,0a3.32,3.32,0,0,1-1.32-.22.71.71,0,0,1-.34-.37,3.74,3.74,0,0,1-.19-.88c0-.72,0-2.66,0-5.75l4.21-.19a3.67,3.67,0,0,1-.47.7,7.48,7.48,0,0,1-2.06,1.53"/><path class="cls-7" d="M386.44,105.55l-.11,0a2.21,2.21,0,0,0-2.82,1.32v0a12.39,12.39,0,0,1-1.85,3.54,16,16,0,0,1-2.89,3,9.48,9.48,0,0,1-4.32,1.7,2.18,2.18,0,0,0-1.9,2.7v.07c.39,1.56,1.34,1.91,2.11,1.91a2.87,2.87,0,0,0,.54-.06,16,16,0,0,0,6.22-2.51,18.76,18.76,0,0,0,3.89-4.11,16.47,16.47,0,0,0,2.42-4.7,2.13,2.13,0,0,0-1.29-2.85"/><path class="cls-7" d="M374.66,106.27h3.85a2.33,2.33,0,0,0,0-4.65h-3.85a2.33,2.33,0,1,0,0,4.65"/><path class="cls-7" d="M401.48,102.32h-3.6a1.5,1.5,0,0,0-.19-.62,2.32,2.32,0,0,0-1.47-1h-.06a2.34,2.34,0,0,0-3,1.74,13.06,13.06,0,0,1-1.56,3.35,10.91,10.91,0,0,1-1.39,1.66l0,0a2.38,2.38,0,0,0-.07,3.36l.05.07.06,0a2.31,2.31,0,0,0,3.25-.39,16.34,16.34,0,0,0,2.72-3.72h3.94a.62.62,0,0,1,.43.11.6.6,0,0,1,0,.41,8,8,0,0,1-.18.82h-3.51a2.24,2.24,0,0,0,0,4.48h1.15q-.31.34-.66.66a10.58,10.58,0,0,1-2.65,1.79,16.71,16.71,0,0,1-2,.79l-.06,0a2.21,2.21,0,0,0-1.31,3l0,.11a2.18,2.18,0,0,0,2,1.39,3,3,0,0,0,1-.21,24.17,24.17,0,0,0,3.78-1.68,14.73,14.73,0,0,0,3.12-2.4,12.38,12.38,0,0,0,2.55-3.83,22.39,22.39,0,0,0,1.49-4.89v0a4.66,4.66,0,0,0-.76-3.85,4,4,0,0,0-3.17-1.15"/><path class="cls-7" d="M416,108h-6.85a2.12,2.12,0,0,0-2.33,2.33v0a2.12,2.12,0,0,0,2.33,2.32H416a2.34,2.34,0,0,0,0-4.67"/></g></g></svg>